<?xml version="1.0" encoding="iso-8859-1"?>
<!-- Uploaded to: SVG Repo, www.svgrepo.com, Generator: SVG Repo Mixer Tools -->
<svg fill="#000000" height="800px" width="800px" version="1.1" id="Layer_1" xmlns="http://www.w3.org/2000/svg" xmlns:xlink="http://www.w3.org/1999/xlink" 
	 viewBox="0 0 512 512" xml:space="preserve">
<g>
	<g>
		<path d="M511.978,255.325c-0.229-86.862-43.893-166.924-116.901-214.265C353.669,14.202,305.573,0.005,255.99,0.005
			c-68.383,0-132.669,26.629-181.019,74.984C26.625,123.34,0,187.627,0,256.005c0,16.684,1.611,33.35,4.789,49.536
			c0.042,0.21,0.089,0.419,0.142,0.625C28.618,425.467,134.099,511.995,255.99,511.995c68.371,0,132.656-26.63,181.012-74.987
			c48.221-48.221,74.829-112.291,74.97-180.457c0.01-0.182,0.028-0.362,0.028-0.545C512,255.776,511.993,255.55,511.978,255.325z
			 M266.438,21.132c41.827,1.837,82.167,14.694,117.268,37.461c64.297,41.692,103.816,111.008,107.147,186.963H266.438V21.132z
			 M255.99,491.098c-112.141,0-209.154-79.73-230.675-189.58c-0.041-0.204-0.086-0.405-0.137-0.605
			c-2.841-14.674-4.281-29.779-4.281-44.908c0-126.139,99.837-229.394,224.644-234.873v234.873c0,0.117,0.014,0.233,0.018,0.35
			c0.004,0.119,0.009,0.237,0.018,0.356c0.007,0.112,0.006,0.226,0.018,0.338c0.026,0.258,0.07,0.511,0.114,0.763
			c0.013,0.07,0.018,0.141,0.031,0.21c0.002,0.009,0.002,0.018,0.004,0.027c0.001,0.004,0.002,0.009,0.003,0.014
			c0.06,0.3,0.137,0.592,0.221,0.883c0.01,0.034,0.017,0.071,0.027,0.106c0.036,0.117,0.079,0.229,0.119,0.344
			c0.029,0.085,0.062,0.168,0.093,0.253c0.033,0.091,0.064,0.184,0.1,0.274c0.011,0.03,0.021,0.061,0.033,0.09
			c0.113,0.271,0.24,0.533,0.374,0.791c0.006,0.013,0.012,0.025,0.018,0.038c0.014,0.025,0.023,0.052,0.037,0.077
			c0.003,0.006,0.007,0.013,0.01,0.019c0.126,0.235,0.266,0.462,0.411,0.685c0.041,0.064,0.075,0.131,0.118,0.194
			c0.062,0.092,0.131,0.178,0.195,0.268c0.062,0.087,0.126,0.171,0.191,0.256c0.016,0.021,0.03,0.042,0.046,0.062
			c0.061,0.078,0.115,0.162,0.179,0.239c0.172,0.209,0.356,0.405,0.544,0.601c0.048,0.05,0.091,0.106,0.14,0.155l166.067,166.068
			C371.228,469.291,315.284,491.098,255.99,491.098z M429.45,414.685L281.216,266.454h209.64
			C488.448,321.854,466.928,373.807,429.45,414.685z"/>
	</g>
</g>
<g>
	<g>
		<path d="M255.99,452.011c-26.044,0-51.334-5.023-75.166-14.928c-5.328-2.213-11.444,0.309-13.658,5.638
			c-2.215,5.329,0.309,11.443,5.638,13.658c26.387,10.967,54.375,16.528,83.186,16.528c5.771,0,10.449-4.679,10.449-10.449
			S261.76,452.011,255.99,452.011z"/>
	</g>
</g>
<g>
	<g>
		<path d="M155.136,424.108C95.552,388.281,59.979,325.437,59.979,256c0-5.77-4.678-10.449-10.449-10.449S39.082,250.23,39.082,256
			c0,38.111,10.026,75.599,28.996,108.411c18.398,31.823,44.777,58.659,76.289,77.606c1.685,1.014,3.541,1.496,5.375,1.496
			c3.546,0,7.004-1.807,8.965-5.067C161.68,433.501,160.081,427.081,155.136,424.108z"/>
	</g>
</g>
</svg>